<svg xmlns="http://www.w3.org/2000/svg" viewBox="0 0 100 100">
  <circle cx="50" cy="50" r="45" fill="white" stroke="#1a1a1a" stroke-width="3"/>
  <g fill="#1a1a1a">
    <polygon points="50,15 63,32 63,32 50,45 37,32 37,32"/>
    <polygon points="50,85 63,68 63,68 50,55 37,68 37,68"/>
    <polygon points="15,50 32,37 32,37 45,50 32,63 32,63"/>
    <polygon points="85,50 68,37 68,37 55,50 68,63 68,63"/>
    <polygon points="50,20 70,35 75,50 70,65 50,80 30,65 25,50 30,35"/>
    <polygon points="50,35 68,45 68,55 50,65 32,55 32,45"/>
    <polygon points="45,32 55,32 50,20"/>
    <polygon points="55,68 45,68 50,80"/>
    <polygon points="32,45 32,55 20,50"/>
    <polygon points="68,55 68,45 80,50"/>
  </g>
  <path d="M75 35 Q78 38 76 42 M73 38 Q76 41 74 45" stroke="#1a1a1a" stroke-width="2" fill="none"/>
  <path d="M28 70 Q25 73 29 76 M31 73 Q28 76 32 79" stroke="#1a1a1a" stroke-width="2" fill="none"/>
</svg>