<svg xmlns="http://www.w3.org/2000/svg" viewBox="0 0 100 100">
  <circle cx="50" cy="50" r="28" fill="#ffaa00"/>
  <circle cx="50" cy="50" r="24" fill="#ffbb33"/>
  <g stroke="#ff7700" stroke-width="3" stroke-linecap="round" fill="none">
    <path d="M50 3 Q47 15 Q53 15 Q50 3"/>
    <path d="M50 97 Q53 85 Q47 85 Q50 97"/>
    <path d="M3 50 Q15 47 Q15 53 Q3 50"/>
    <path d="M97 50 Q85 53 Q85 47 Q97 50"/>
    <path d="M12 12 Q5 25 Q15 22 Q12 12"/>
    <path d="M88 88 Q95 75 Q85 78 Q88 88"/>
    <path d="M88 12 Q95 25 Q85 22 Q88 12"/>
    <path d="M12 88 Q5 75 Q15 78 Q12 88"/>
    <path d="M5 28 Q0 45 Q8 38 Q5 28"/>
    <path d="M95 72 Q100 55 Q92 62 Q95 72"/>
    <path d="M95 28 Q100 45 Q92 38 Q95 28"/>
    <path d="M5 72 Q0 55 Q8 62 Q5 72"/>
  </g>
  <g fill="#ff5500" opacity="0.5">
    <circle cx="75" cy="30" r="2"/>
    <circle cx="82" cy="42" r="1.5"/>
    <circle cx="68" cy="8" r="1"/>
    <circle cx="88" cy="26" r="1"/>
    <circle cx="25" cy="70" r="1.5"/>
    <circle cx="12" cy="62" r="1"/>
    <circle cx="30" cy="88" r="1"/>
    <circle cx="8" cy="52" r="1"/>
  </g>
  <circle cx="44" cy="44" r="4" fill="#fff" opacity="0.8"/>
</svg>