<svg xmlns="http://www.w3.org/2000/svg" width="100" height="100" viewBox="0 0 100 100">
  <rect x="8" y="8" width="84" height="84" rx="12" ry="12" fill="#f5c518" stroke="#1a1a1a" stroke-width="3"/>
  <polygon points="22,20 25,28 34,28 27,34 30,43 22,37 14,43 17,34 10,28 19,28" fill="#2b4d8f" stroke="#1a1a1a" stroke-width="2"/>
  <polygon points="50,18 51,26 58,26 53,31 55,39 50,34 45,39 47,31 42,26 49,26" fill="#1a1a1a" stroke="#1a1a1a" stroke-width="2"/>
  <polygon points="78,20 81,28 90,28 83,34 86,43 78,37 70,43 73,34 66,28 75,28" fill="#ff6b9d" stroke="#1a1a1a" stroke-width="2"/>
  <ellipse cx="64" cy="26" rx="4" ry="4" fill="#2b4d8f" stroke="#1a1a1a" stroke-width="2"/>
  <ellipse cx="46" cy="82" rx="4" ry="4" fill="#2b4d8f" stroke="#1a1a1a" stroke-width="2"/>
  <path d="M15 85 Q8 92 25 95 Q35 97 42 85" fill="#4ade80" stroke="#1a1a1a" stroke-width="2"/>
  <path d="M85 85 Q92 92 75 95 Q65 97 58 85" fill="#ff6b9d" stroke="#1a1a1a" stroke-width="2"/>
  <polygon points="50,18 51,26 58,26 53,31 55,39 50,34 45,39 47,31 42,26 49,26" fill="#1a1a1a" stroke="#1a1a1a" stroke-width="2"/>
  <polygon points="60,82 61,88 67,88 63,92 64,98 60,94 56,98 57,92 53,88 59,88" fill="#1a1a1a" stroke="#1a1a1a" stroke-width="2"/>
  <text x="22" y="68" font-family="Arial, sans-serif" font-size="28" font-weight="bold" fill="#2b4d8f" stroke="#1a1a1a" stroke-width="2">T</text>
  <text x="40" y="68" font-family="Arial, sans-serif" font-size="28" font-weight="bold" fill="#f5c518" stroke="#1a1a1a" stroke-width="2">A</text>
  <text x="58" y="68" font-family="Arial, sans-serif" font-size="28" font-weight="bold" fill="#ff6b9d" stroke="#1a1a1a" stroke-width="2">A</text>
</svg>